<svg width="198" height="35" viewBox="0 0 198 35" fill="none" xmlns="http://www.w3.org/2000/svg">
<g clip-path="url(#clip0_12520_46856)">
<g clip-path="url(#clip1_12520_46856)">
<path d="M44.9959 26.1084C44.8919 28.7029 44.5393 31.1438 42.6269 31.5117C42.4732 31.5376 42.3376 31.5528 42.1907 31.5528C39.9325 31.5528 37.9862 28.242 35.927 24.7538C34.5639 22.4535 32.95 19.714 31.5259 18.7727C31.2026 18.5563 30.7302 18.5823 30.4522 18.8398C29.2745 19.9369 28.411 23.0075 27.7012 25.5782C26.5823 29.5923 25.5176 33.3986 23.0198 33.3986C20.522 33.3986 19.4574 29.5966 18.3384 25.5717C17.6287 22.9967 16.7674 19.9131 15.5897 18.8268C15.3162 18.5737 14.8528 18.5455 14.5251 18.7533C13.0919 19.6708 11.4689 22.4319 10.0946 24.7559C8.03306 28.2442 6.08907 31.5549 3.83089 31.5549C3.68396 31.5549 3.55285 31.5398 3.39462 31.5138C1.48454 31.1438 1.13191 28.7007 1.02793 26.1062C0.734074 18.8333 2.76396 11.6513 6.87571 5.33055C8.24102 3.21858 9.90923 1.11959 11.8057 1.48313C14.2402 1.94404 14.2289 5.84123 14.2176 9.96564C14.2176 12.1793 14.2109 14.7609 14.7127 16.2886C14.898 16.849 15.8203 16.9291 16.1481 16.4119C17.0364 15.0032 17.7259 12.5342 18.3181 10.4092C19.437 6.38437 20.5039 2.58239 22.9995 2.58239C25.495 2.58239 26.5619 6.38437 27.6809 10.4179C28.2754 12.5558 28.9693 15.0487 29.8645 16.4509C30.1922 16.9637 31.1122 16.8858 31.2976 16.3275C31.8062 14.802 31.8039 12.1988 31.8039 9.96564C31.7926 5.83907 31.7836 1.94187 34.2158 1.48313C36.1236 1.11743 37.7783 3.21858 39.1458 5.33055C43.2576 11.6513 45.2762 18.8333 44.9981 26.1084H44.9959Z" fill="white"/>
<path d="M71.7153 25.5556C71.659 24.5796 71.6265 23.6037 71.6265 22.6819C71.5984 21.7341 71.5984 20.7863 71.5984 19.8645V15.8439C71.5984 14.5521 71.4534 13.3706 71.1656 12.3384C70.8757 11.2456 70.3866 10.2978 69.7266 9.52101C69.0645 8.74416 68.1708 8.1123 67.0477 7.67952C65.9528 7.24674 64.5679 7.01953 62.9839 7.01953C61.889 7.01953 60.794 7.16451 59.6991 7.42418C58.6323 7.68385 57.6542 8.1123 56.8471 8.6879C56.0118 9.2635 55.3193 10.0079 54.774 10.8734C54.2287 11.7347 53.8522 12.769 53.7072 13.9462L53.651 14.2621L58.232 15.4393L58.2882 15.0346C58.4051 14.0868 58.721 13.31 59.1819 12.7344C59.671 12.1913 60.2487 11.7585 60.9109 11.5269C62.3239 11.0098 63.9641 11.0379 65.031 11.5832C65.5806 11.8429 65.9809 12.1869 66.2709 12.6479C66.5587 13.0806 66.7037 13.6238 66.7037 14.2275C66.7037 14.5997 66.5868 14.8875 66.3877 15.0887C66.1865 15.3159 65.7818 15.5215 65.2084 15.6319C64.5744 15.805 63.7131 15.9478 62.6182 16.0647C61.4951 16.2919 60.4002 16.4974 59.3334 16.6965C58.2385 16.9237 57.2041 17.2721 56.2801 17.7612C55.302 18.2783 54.4949 18.9686 53.9171 19.8299C53.3394 20.6911 53.0234 21.8142 53.0234 23.1623C53.0234 24.5104 53.3112 25.6637 53.8868 26.5228C54.4603 27.3841 55.2436 28.0743 56.2217 28.5352C57.1716 28.9962 58.2082 29.2558 59.3031 29.2558C60.7702 29.2558 62.0383 28.9399 63.1332 28.3643C64.2281 27.7606 65.1218 26.9837 65.8403 26.0078C66.3899 25.2591 66.8183 24.4282 67.1646 23.5669C67.1646 24.255 67.1927 24.9475 67.1927 25.6075L67.3096 28.6802H71.9468L71.9187 28.308C71.8299 27.4468 71.7737 26.5271 71.7174 25.5512L71.7218 25.5556H71.7153ZM65.6953 22.2231C65.2906 22.9113 64.8016 23.4587 64.2844 23.8915C63.7391 24.2962 63.1613 24.6402 62.5836 24.8674C61.9777 25.0946 61.4324 25.2115 60.8827 25.2115C59.9891 25.2115 59.2706 24.9843 58.7816 24.5515C58.2926 24.0906 58.0589 23.4587 58.0589 22.5997C58.0589 21.8791 58.2038 21.3359 58.5479 20.9637C58.8638 20.5591 59.355 20.2432 59.9588 19.9878C60.5928 19.7282 61.2831 19.5269 62.0599 19.4122C62.8389 19.2672 63.6158 19.1526 64.3666 19.04C65.1456 18.895 65.8944 18.7241 66.5846 18.4969C66.6128 18.4969 66.6409 18.4688 66.6734 18.4688L66.7015 19.9056C66.4418 20.7668 66.0956 21.5415 65.6953 22.234V22.2253V22.2231Z" fill="white"/>
<path d="M105.284 12.2843C105.024 11.3322 104.667 10.4601 104.222 9.70061C103.756 8.89997 103.088 8.24863 102.233 7.75526C101.378 7.26622 100.316 7.01953 99.0737 7.01953C97.8316 7.01953 96.6956 7.31599 95.711 7.89591C94.7199 8.48017 93.8911 9.38901 93.2441 10.5965C92.727 11.5637 92.305 12.7734 91.9956 14.2059C91.9393 13.3771 91.8311 12.6046 91.6796 11.897C91.4632 10.8734 91.1062 9.99707 90.6172 9.28514C90.1238 8.56889 89.4833 8.00844 88.7086 7.61244C87.9339 7.22077 87.0251 7.01953 85.9972 7.01953C84.7789 7.01953 83.671 7.31599 82.7081 7.90024C81.7451 8.48882 80.951 9.41281 80.3581 10.6527C79.8842 11.646 79.499 12.8664 79.2155 14.2903L79.5401 7.49126H75.0479L75.0933 28.7019H80.0789V19.8082C80.1547 18.0879 80.4035 16.5753 80.8125 15.3159C81.2128 14.076 81.756 13.1153 82.4203 12.4661C83.0651 11.8299 83.8485 11.5248 84.8136 11.5248C85.6077 11.5248 86.1941 11.7455 86.5988 12.1978C87.0316 12.6738 87.3497 13.2732 87.5466 13.983C87.7478 14.7187 87.8798 15.4717 87.9274 16.2161C87.9794 17.0211 88.0075 17.6486 88.0075 18.1398V28.7062H92.9542V19.6957C93.0299 18.0273 93.2788 16.558 93.6877 15.3181C94.0881 14.1063 94.6464 13.1542 95.3518 12.4899C96.0421 11.8407 96.7908 11.5248 97.6542 11.5248C98.4483 11.5248 99.0629 11.7282 99.474 12.1285C99.9111 12.557 100.234 13.1174 100.424 13.8012C100.63 14.5304 100.757 15.2532 100.805 15.9586C100.861 16.7073 100.885 17.3305 100.885 17.8629V28.7062H105.912V17.3154C105.912 16.6229 105.871 15.8439 105.79 14.9957C105.71 14.1518 105.542 13.2429 105.284 12.2951V12.2865V12.2843Z" fill="white"/>
<path d="M124.975 8.36964C123.679 7.44998 122.095 6.96094 120.277 6.96094C118.981 6.96094 117.83 7.22061 116.88 7.73778C115.93 8.22682 115.095 9.0015 114.461 10.0056C113.943 10.8105 113.511 11.7864 113.193 12.8792L113.424 7.47811H108.899V34.8385H113.913V29.1215C113.913 28.4009 113.885 27.6847 113.857 26.936C113.829 26.1591 113.714 25.3563 113.597 24.5513C113.541 24.2354 113.513 23.9476 113.452 23.6598C113.714 24.4085 114.03 25.1248 114.374 25.7566C114.98 26.8213 115.813 27.6803 116.793 28.2862C117.8 28.89 119.039 29.2059 120.478 29.2059C122.236 29.2059 123.791 28.745 125.059 27.8253C126.328 26.9057 127.306 25.5857 127.94 23.9433C128.602 22.3074 128.92 20.3231 128.92 18.0813C128.92 15.8394 128.574 13.8551 127.914 12.2192C127.223 10.5833 126.241 9.28714 124.973 8.36964H124.975ZM119.156 24.5189C118.522 24.5189 117.945 24.3739 117.455 24.1467C116.966 23.887 116.506 23.5148 116.131 23.0539C115.698 22.593 115.352 22.078 115.093 21.5284C114.803 21.0112 114.603 20.4637 114.487 19.8924C114.344 19.3168 114.285 18.7715 114.285 18.2847V17.7675C114.285 17.0469 114.402 16.3307 114.629 15.6425C114.861 14.9219 115.207 14.2338 115.608 13.602C116.008 13.0264 116.503 12.5655 117.077 12.2495C117.655 11.9336 118.345 11.7605 119.122 11.7605C120.018 11.7605 120.794 11.9877 121.396 12.4811C122.03 12.9701 122.519 13.6885 122.835 14.606C123.207 15.5819 123.38 16.7634 123.38 18.0834C123.38 19.4034 123.207 20.5849 122.863 21.5889C122.547 22.5086 122.056 23.2573 121.424 23.7745C120.818 24.2635 120.07 24.5232 119.15 24.5232L119.154 24.5189H119.156Z" fill="white"/>
<path d="M141.669 24.2888C141.209 24.4122 140.767 24.4727 140.317 24.4727C139.579 24.4727 139.001 24.2931 138.551 23.9253C138.127 23.5769 137.913 22.9169 137.913 21.9561V11.7923H143.444V7.48609H137.913V2.95703H134.628L134.271 5.77444C134.228 6.41495 134.042 6.88236 133.73 7.17448C133.416 7.46661 132.88 7.62674 132.142 7.65054H130.205V11.7209H132.968V22.1595C132.968 23.2155 133.1 24.1806 133.362 25.0245C133.622 25.8815 134.016 26.6323 134.533 27.2577C135.059 27.8939 135.74 28.3743 136.563 28.6859C137.365 28.991 138.311 29.1425 139.374 29.1425C139.943 29.1425 140.544 29.0905 141.211 28.9823C141.864 28.8741 142.565 28.6815 143.292 28.4111L143.524 28.3223V23.2848L142.955 23.6851C142.542 23.9772 142.109 24.1806 141.667 24.3018V24.2888H141.669Z" fill="white"/>
<path d="M151.315 0.672975C150.765 0.225046 149.99 0 149.012 0C148.034 0 147.231 0.220718 146.71 0.655663C146.165 1.10359 145.888 1.78739 145.888 2.68324C145.888 3.47956 146.173 4.11142 146.729 4.55935C147.266 4.99213 148.032 5.21069 149.012 5.21069C149.993 5.21069 150.798 4.98997 151.332 4.56151C151.893 4.11358 152.178 3.46441 152.178 2.64429C152.178 1.82417 151.888 1.13605 151.315 0.670811V0.666483V0.672975Z" fill="white"/>
<path d="M151.587 7.48828H146.561V28.6989H151.587V7.48828Z" fill="white"/>
<path d="M164.415 24.2171L159.233 7.53125H153.797L161.236 28.7007H167.518L174.875 7.53125H169.561L164.415 24.2171Z" fill="white"/>
<path d="M190.155 21.0741L190.127 21.4788C190.127 21.9115 190.01 22.3703 189.811 22.7987C189.579 23.2315 189.322 23.6318 188.945 23.9759C188.629 24.32 188.166 24.6078 187.589 24.8371C187.043 25.0643 186.349 25.1812 185.6 25.1812C183.754 25.1812 182.376 24.6056 181.424 23.4566C180.562 22.4201 180.069 20.9551 179.985 19.0595L194.39 18.9145L194.418 18.5986C194.502 16.729 194.39 15.0931 194.013 13.6562C193.667 12.2194 193.063 11.0119 192.256 10.0079C191.449 9.00383 190.41 8.25512 189.203 7.74011C188.019 7.25107 186.667 7.01953 185.2 7.01953C183.559 7.01953 182.086 7.30733 180.82 7.88077C179.58 8.45636 178.513 9.26134 177.652 10.2654C176.819 11.3019 176.155 12.505 175.722 13.9137C175.261 15.2943 175.06 16.8155 175.06 18.4558C175.06 20.096 175.261 21.5004 175.722 22.8247C176.155 24.1447 176.845 25.298 177.71 26.2458C178.572 27.1655 179.699 27.9142 180.995 28.4595C182.291 28.9767 183.819 29.2645 185.52 29.2645C186.903 29.2645 188.14 29.0914 189.205 28.7473C190.3 28.4033 191.222 27.8861 192.001 27.2218C192.808 26.5899 193.414 25.8131 193.875 24.954C194.308 24.1209 194.597 23.1731 194.768 22.1647L194.825 21.8206L190.155 21.0719V21.0763V21.0741ZM180.591 14.4634C181.023 13.4269 181.625 12.5938 182.404 12.0506C183.153 11.475 184.105 11.2175 185.2 11.2175C186.15 11.2175 187.017 11.4447 187.736 11.9056C188.458 12.3665 189.004 13.0828 189.32 14.0025C189.493 14.4634 189.608 15.0065 189.664 15.5821L180.214 15.6708C180.331 15.238 180.446 14.8377 180.588 14.4634H180.593H180.591Z" fill="white"/>
</g>
</g>
<defs>
<clipPath id="clip0_12520_46856">
<rect width="197.222" height="34.8385" fill="white"/>
</clipPath>
<clipPath id="clip1_12520_46856">
<rect width="195.222" height="34.8385" fill="white" transform="translate(1)"/>
</clipPath>
</defs>
</svg>
