<svg width="20" height="20" viewBox="0 0 20 20" fill="none" xmlns="http://www.w3.org/2000/svg">
<path d="M1.66669 7.49935C1.66669 5.928 1.66669 5.14233 2.15484 4.65417C2.643 4.16602 3.42867 4.16602 5.00002 4.16602H15C16.5714 4.16602 17.357 4.16602 17.8452 4.65417C18.3334 5.14233 18.3334 5.928 18.3334 7.49935C18.3334 7.89219 18.3334 8.0886 18.2113 8.21064C18.0893 8.33268 17.8929 8.33268 17.5 8.33268H2.50002C2.10718 8.33268 1.91076 8.33268 1.78873 8.21064C1.66669 8.0886 1.66669 7.89219 1.66669 7.49935Z" fill="#A8A8A8"/>
<path d="M1.66669 15.0007C1.66669 16.572 1.66669 17.3577 2.15484 17.8458C2.643 18.334 3.42867 18.334 5.00002 18.334H15C16.5714 18.334 17.357 18.334 17.8452 17.8458C18.3334 17.3577 18.3334 16.572 18.3334 15.0007V10.834C18.3334 10.4411 18.3334 10.2447 18.2113 10.1227C18.0893 10.0007 17.8929 10.0007 17.5 10.0007H2.50002C2.10718 10.0007 1.91076 10.0007 1.78873 10.1227C1.66669 10.2447 1.66669 10.4411 1.66669 10.834V15.0007Z" fill="#A8A8A8"/>
<path d="M5.83331 2.5L5.83331 5" stroke="#A8A8A8" stroke-width="1.66667" stroke-linecap="round"/>
<path d="M14.1667 2.5L14.1667 5" stroke="#A8A8A8" stroke-width="1.66667" stroke-linecap="round"/>
</svg>
