<svg width="25" height="21" viewBox="0 0 25 21" fill="none" xmlns="http://www.w3.org/2000/svg">
<g clip-path="url(#clip0_6868_117445)">
<path d="M0 4.39355C0 3.08575 0.374727 1.97272 1.1797 1.17969L2.56758 2.57097C1.02703 4.1153 2.37327 8.91522 6.77285 13.3256C11.1724 17.736 15.9606 19.0855 17.5012 17.5412L18.889 18.9325C16.2798 21.5481 10.3536 19.6838 5.38497 14.7169C1.94303 11.2526 0 7.34307 0 4.39355Z" fill="white"/>
<path d="M8.75776 20.1307C7.45315 20.1307 6.34285 19.755 5.55176 18.9481L6.93964 17.5568C8.48018 19.1011 13.2684 17.7516 17.6679 13.3412C22.0675 8.93085 23.4138 4.13092 21.8732 2.5866L23.2611 1.19531C25.8703 3.81093 24.0105 9.75171 19.0558 14.7325C15.6 18.1829 11.6862 20.1307 8.75776 20.1307Z" fill="white"/>
<path d="M19.4999 12.7467C18.6533 10.3119 16.9323 7.71024 14.6562 5.42854C9.68757 0.447743 3.76133 -1.40266 1.15212 1.19904C0.971695 1.39382 1.13824 1.85294 1.51297 2.22859C1.88769 2.60423 2.35957 2.77119 2.54 2.59032C4.08054 1.046 8.86873 2.39554 13.2683 6.80591C15.3501 8.89283 16.9045 11.2302 17.654 13.3867C18.3063 15.2788 18.2508 16.8092 17.4875 17.5744C17.307 17.7553 17.4597 18.2144 17.8483 18.604C18.2369 18.9935 18.6949 19.1466 18.8753 18.9657C20.2077 17.6162 20.4298 15.404 19.4999 12.7467Z" fill="white"/>
<path d="M23.2475 1.19613C21.9152 -0.139507 19.7085 -0.362112 17.0576 0.556135C14.6288 1.40482 12.0335 3.13001 9.75736 5.41171C4.78876 10.3925 2.94288 16.3333 5.55209 18.9489C5.73251 19.1298 6.20439 18.9767 6.57912 18.5872C6.95385 18.1976 7.12039 17.7385 6.93997 17.5576C5.39942 16.0133 6.74567 11.2134 11.1452 6.803C13.2271 4.71607 15.5587 3.15783 17.696 2.40654C19.5835 1.75264 21.1102 1.80829 21.8735 2.5735C22.054 2.75436 22.512 2.60132 22.9006 2.21176C23.2892 1.8222 23.4418 1.3909 23.2475 1.19613Z" fill="white"/>
</g>
<defs>
<clipPath id="clip0_6868_117445">
<rect width="24.4267" height="20.1319" fill="white"/>
</clipPath>
</defs>
</svg>
